name ./resultDataOpenSim/trcMotMarkerGrf/sub10/grf-01-08.mot
datacolumns 19
datarows 15
range 0.86800000 0.92400000
endheader

                time	     ground_force_vx	     ground_force_vy	     ground_force_vz	     ground_force_px	     ground_force_py	     ground_force_pz	   l_ground_force_vx	   l_ground_force_vy	   l_ground_force_vz	   l_ground_force_px	   l_ground_force_py	   l_ground_force_pz	     ground_torque_x	     ground_torque_y	     ground_torque_z	   l_ground_torque_x	   l_ground_torque_y	   l_ground_torque_z	
          0.86800000	          0.00000000	          0.00000000	          0.00000000	          0.00000000	          0.00000000	          0.00000000	         -6.50979765	        338.62875396	         13.91927276	         -0.00907603	          0.00000000	         -0.17743054	          0.00000000	          0.00000000	          0.00000000	          0.00000000	         -2.15832750	          0.00000000	
          0.87200000	          0.00000000	          0.00000000	          0.00000000	          0.00000000	          0.00000000	          0.00000000	         -5.28287286	        339.14117432	         13.60719125	         -0.00721816	          0.00000000	         -0.17701416	          0.00000000	          0.00000000	          0.00000000	          0.00000000	         -2.29658739	          0.00000000	
          0.87600000	          0.00000000	          0.00000000	          0.00000000	          0.00000000	          0.00000000	          0.00000000	         -3.95209113	        340.21635958	         13.31545727	         -0.00534420	          0.00000000	         -0.17658005	          0.00000000	          0.00000000	          0.00000000	          0.00000000	         -2.45716181	          0.00000000	
          0.88000000	          0.00000000	          0.00000000	          0.00000000	          0.00000000	          0.00000000	          0.00000000	         -2.52860948	        341.84344788	         13.04910842	         -0.00349410	          0.00000000	         -0.17615731	          0.00000000	          0.00000000	          0.00000000	          0.00000000	         -2.63879458	          0.00000000	
          0.88400000	          0.00000000	          0.00000000	          0.00000000	          0.00000000	          0.00000000	          0.00000000	         -1.00882349	        344.07874893	         12.80439477	         -0.00171065	          0.00000000	         -0.17576230	          0.00000000	          0.00000000	          0.00000000	          0.00000000	         -2.83898215	          0.00000000	
          0.88800000	          0.00000000	          0.00000000	          0.00000000	          0.00000000	          0.00000000	          0.00000000	          0.61720102	        347.04610802	         12.57753520	          0.00000289	          0.00000000	         -0.17536930	          0.00000000	          0.00000000	          0.00000000	          0.00000000	         -3.05411815	          0.00000000	
          0.89200000	          0.00000000	          0.00000000	          0.00000000	          0.00000000	          0.00000000	          0.00000000	          2.36553746	        350.90636969	         12.37676560	          0.00168732	          0.00000000	         -0.17490205	          0.00000000	          0.00000000	          0.00000000	          0.00000000	         -3.27972518	          0.00000000	
          0.89600000	          0.00000000	          0.00000000	          0.00000000	          0.00000000	          0.00000000	          0.00000000	          4.26983510	        355.79265878	         12.23229072	          0.00334284	          0.00000000	         -0.17433527	          0.00000000	          0.00000000	          0.00000000	          0.00000000	         -3.51075416	          0.00000000	
          0.90000000	          0.00000000	          0.00000000	          0.00000000	          0.00000000	          0.00000000	          0.00000000	          6.37313838	        361.73900051	         12.21120423	          0.00486122	          0.00000000	         -0.17376193	          0.00000000	          0.00000000	          0.00000000	          0.00000000	         -3.74193913	          0.00000000	
          0.90400000	          0.00000000	          0.00000000	          0.00000000	          0.00000000	          0.00000000	          0.00000000	          8.70537505	        368.69647152	         12.41905302	          0.00608881	          0.00000000	         -0.17338801	          0.00000000	          0.00000000	          0.00000000	          0.00000000	         -3.96810116	          0.00000000	
          0.90800000	          0.00000000	          0.00000000	          0.00000000	          0.00000000	          0.00000000	          0.00000000	         11.26962357	        376.66876902	         12.95991071	          0.00700344	          0.00000000	         -0.17336153	          0.00000000	          0.00000000	          0.00000000	          0.00000000	         -4.18429940	          0.00000000	
          0.91200000	          0.00000000	          0.00000000	          0.00000000	          0.00000000	          0.00000000	          0.00000000	         14.03631870	        385.80556272	         13.88354819	          0.00770153	          0.00000000	         -0.17364568	          0.00000000	          0.00000000	          0.00000000	          0.00000000	         -4.38587110	          0.00000000	
          0.91600000	          0.00000000	          0.00000000	          0.00000000	          0.00000000	          0.00000000	          0.00000000	         16.94798484	        396.31516383	         15.18269935	          0.00834771	          0.00000000	         -0.17406581	          0.00000000	          0.00000000	          0.00000000	          0.00000000	         -4.56854630	          0.00000000	
          0.92000000	          0.00000000	          0.00000000	          0.00000000	          0.00000000	          0.00000000	          0.00000000	         19.93860154	        408.32137507	         16.83314748	          0.00907237	          0.00000000	         -0.17446124	          0.00000000	          0.00000000	          0.00000000	          0.00000000	         -4.72884940	          0.00000000	
          0.92400000	          0.00000000	          0.00000000	          0.00000000	          0.00000000	          0.00000000	          0.00000000	         22.94944740	        421.81931898	         18.80710182	          0.00994282	          0.00000000	         -0.17474576	          0.00000000	          0.00000000	          0.00000000	          0.00000000	         -4.86477380	          0.00000000	
